<?xml version="1.0" encoding="UTF-8"?>
<svg id="Calque_1" xmlns="http://www.w3.org/2000/svg" version="1.1" viewBox="0 0 62.1 62.1">
  <!-- Generator: Adobe Illustrator 29.5.1, SVG Export Plug-In . SVG Version: 2.1.0 Build 141)  -->
  <defs>
    <style>
      .st0 {
        fill: #806181;
      }

      .st1 {
        fill: #fff;
      }

      .st2 {
        fill: none;
        stroke: #806181;
        stroke-width: 6.6px;
      }
    </style>
  </defs>
  <g>
    <circle class="st1" cx="31" cy="31" r="31"/>
    <circle class="st2" cx="31" cy="31" r="27.7"/>
  </g>
  <path class="st0" d="M22.3,43v-23.9h9.4c1.8,0,3.3.3,4.6,1,1.3.6,2.3,1.5,2.9,2.7.7,1.2,1,2.5,1,4.1s-.3,3-1,4.1c-.7,1.1-1.7,2-3,2.6-1.3.6-2.9.9-4.7.9h-6.3v-4.1h5.5c1,0,1.8-.1,2.4-.4.6-.3,1.1-.7,1.4-1.2.3-.5.5-1.2.5-2s-.2-1.5-.5-2c-.3-.5-.8-1-1.4-1.2-.6-.3-1.4-.4-2.4-.4h-3.4v19.8h-5.1ZM35.2,32.1l5.9,10.9h-5.6l-5.8-10.9h5.5Z"/>
</svg>