<svg width="39" height="39" viewBox="0 0 39 39" fill="none" xmlns="http://www.w3.org/2000/svg">
<path d="M20.7642 12.3636L20.5426 20.5114H18.4631L18.2358 12.3636H20.7642ZM19.5028 24.1477C19.1278 24.1477 18.8059 24.0152 18.5369 23.75C18.268 23.4811 18.1354 23.1591 18.1392 22.7841C18.1354 22.4129 18.268 22.0947 18.5369 21.8295C18.8059 21.5644 19.1278 21.4318 19.5028 21.4318C19.8627 21.4318 20.179 21.5644 20.4517 21.8295C20.7244 22.0947 20.8627 22.4129 20.8665 22.7841C20.8627 23.0341 20.7964 23.2633 20.6676 23.4716C20.5426 23.6761 20.3778 23.8409 20.1733 23.9659C19.9688 24.0871 19.7453 24.1477 19.5028 24.1477Z" fill="#E36C6C"/>
<path d="M16.9023 6.5C18.021 4.56276 20.7641 4.50224 21.9844 6.31836L22.0977 6.5L32.0576 23.75C33.2122 25.75 31.7683 28.25 29.459 28.25H9.54102C7.30368 28.25 5.87859 25.9035 6.8418 23.9385L6.94238 23.75L16.9023 6.5Z" stroke="#E36C6C" stroke-width="2"/>
</svg>
