<svg width="41" height="41" viewBox="0 0 41 41" fill="none" xmlns="http://www.w3.org/2000/svg">
<circle cx="20.5" cy="20.5" r="18" stroke="white" stroke-width="4"/>
<path d="M18.0682 24.267V23.9773C18.0739 22.983 18.1619 22.1903 18.3324 21.5994C18.5085 21.0085 18.7642 20.5312 19.0994 20.1676C19.4347 19.804 19.8381 19.4744 20.3097 19.179C20.6619 18.9517 20.9773 18.7159 21.2557 18.4716C21.5341 18.2273 21.7557 17.9574 21.9205 17.6619C22.0852 17.3608 22.1676 17.0256 22.1676 16.6562C22.1676 16.2642 22.0739 15.9205 21.8864 15.625C21.6989 15.3295 21.446 15.1023 21.1278 14.9432C20.8153 14.7841 20.4688 14.7045 20.0881 14.7045C19.7188 14.7045 19.3693 14.7869 19.0398 14.9517C18.7102 15.1108 18.4403 15.3494 18.2301 15.6676C18.0199 15.9801 17.9063 16.3693 17.8892 16.8352H14.4119C14.4403 15.6989 14.7131 14.7614 15.2301 14.0227C15.7472 13.2784 16.4318 12.7244 17.2841 12.3608C18.1364 11.9915 19.0767 11.8068 20.1051 11.8068C21.2358 11.8068 22.2358 11.9943 23.1051 12.3693C23.9744 12.7386 24.6563 13.2756 25.1506 13.9801C25.6449 14.6847 25.892 15.5341 25.892 16.5284C25.892 17.1932 25.7813 17.7841 25.5597 18.3011C25.3438 18.8125 25.0398 19.267 24.6477 19.6648C24.2557 20.0568 23.7926 20.4119 23.2585 20.7301C22.8097 20.9972 22.4403 21.2756 22.1506 21.5653C21.8665 21.8551 21.6534 22.1903 21.5114 22.571C21.375 22.9517 21.304 23.4205 21.2983 23.9773V24.267H18.0682ZM19.7557 29.7216C19.1875 29.7216 18.7017 29.5227 18.2983 29.125C17.9006 28.7216 17.7045 28.2386 17.7102 27.6761C17.7045 27.1193 17.9006 26.642 18.2983 26.2443C18.7017 25.8466 19.1875 25.6477 19.7557 25.6477C20.2955 25.6477 20.7699 25.8466 21.179 26.2443C21.5881 26.642 21.7955 27.1193 21.8011 27.6761C21.7955 28.0511 21.696 28.3949 21.5028 28.7074C21.3153 29.0142 21.0682 29.2614 20.7614 29.4489C20.4545 29.6307 20.1193 29.7216 19.7557 29.7216Z" fill="white"/>
</svg>
