<svg width="30" height="28" viewBox="0 0 30 28" fill="none" xmlns="http://www.w3.org/2000/svg">
<path d="M15.0098 1.30957C22.6174 1.30973 28.709 7.14349 28.709 14.249C28.7089 21.3545 22.6174 27.1883 15.0098 27.1885C7.40199 27.1885 1.30964 21.3546 1.30957 14.249C1.30957 7.14339 7.40195 1.30957 15.0098 1.30957Z" stroke="white" stroke-width="1.61931"/>
<mask id="mask0_2502_15039" style="mask-type:alpha" maskUnits="userSpaceOnUse" x="0" y="0" width="30" height="28">
<path d="M15.0098 1.30957C22.6174 1.30973 28.709 7.14349 28.709 14.249C28.7089 21.3545 22.6174 27.1883 15.0098 27.1885C7.40199 27.1885 1.30964 21.3546 1.30957 14.249C1.30957 7.14339 7.40195 1.30957 15.0098 1.30957Z" fill="white" stroke="white" stroke-width="1.61931"/>
</mask>
<g mask="url(#mask0_2502_15039)">
<path d="M7.56879 11.7806C7.19675 8.25531 5.95663 6.37507 5.33657 5.08243L0.5 10.3705C2.2362 11.5457 4.59241 13.8959 6.08056 17.4213C3.84833 20.9466 4.71651 24.1194 5.33657 25.8821L16.1256 28.7024C8.38727 22.2157 9.677 17.5387 11.2892 16.0111C26.1706 16.7162 20.2181 10.3705 29.519 10.0179L28.7749 5.78751C16.8696 1.55713 19.1019 12.8383 7.56879 11.7806Z" fill="white"/>
</g>
</svg>
