<svg width="98" height="49" viewBox="0 0 98 49" fill="none" xmlns="http://www.w3.org/2000/svg">
<path d="M0 49V42.5687C0 39.6424 1.49722 37.2604 4.49167 35.4229C7.48611 33.5854 11.4333 32.6667 16.3333 32.6667C17.2181 32.6667 18.0688 32.6844 18.8854 32.7197C19.7021 32.7551 20.4847 32.8395 21.2333 32.9729C20.2806 34.4021 19.566 35.8993 19.0896 37.4646C18.6132 39.0299 18.375 40.6632 18.375 42.3646V49H0ZM24.5 49V42.3646C24.5 40.1868 25.0962 38.1955 26.2885 36.3907C27.4808 34.5858 29.1645 33.0042 31.3396 31.6458C33.5146 30.2874 36.1184 29.2666 39.151 28.5833C42.1836 27.9001 45.4666 27.5598 49 27.5625C52.6069 27.5625 55.9253 27.9028 58.9552 28.5833C61.985 29.2639 64.5874 30.2847 66.7625 31.6458C68.9376 33.0069 70.6049 34.5899 71.7646 36.3947C72.9243 38.1996 73.5027 40.1895 73.5 42.3646V49H24.5ZM79.625 49V42.3646C79.625 40.5951 79.4045 38.9278 78.9635 37.3625C78.5225 35.7972 77.8583 34.334 76.9708 32.9729C77.7194 32.8368 78.4857 32.7524 79.2698 32.7197C80.0537 32.6871 80.8527 32.6694 81.6667 32.6667C86.5667 32.6667 90.5139 33.5691 93.5083 35.3739C96.5028 37.1788 98 39.577 98 42.5687V49H79.625ZM16.3333 28.5833C14.0875 28.5833 12.1656 27.7844 10.5677 26.1864C8.96972 24.5885 8.16939 22.6652 8.16667 20.4167C8.16667 18.1028 8.967 16.1632 10.5677 14.5979C12.1683 13.0326 14.0902 12.25 16.3333 12.25C18.6472 12.25 20.5868 13.0326 22.1521 14.5979C23.7174 16.1632 24.5 18.1028 24.5 20.4167C24.5 22.6625 23.7174 24.5858 22.1521 26.1864C20.5868 27.7871 18.6472 28.5861 16.3333 28.5833ZM81.6667 28.5833C79.4208 28.5833 77.4989 27.7844 75.901 26.1864C74.3031 24.5885 73.5027 22.6652 73.5 20.4167C73.5 18.1028 74.3003 16.1632 75.901 14.5979C77.5017 13.0326 79.4236 12.25 81.6667 12.25C83.9806 12.25 85.9201 13.0326 87.4854 14.5979C89.0507 16.1632 89.8333 18.1028 89.8333 20.4167C89.8333 22.6625 89.0507 24.5858 87.4854 26.1864C85.9201 27.7871 83.9806 28.5861 81.6667 28.5833ZM49 24.5C45.5972 24.5 42.7049 23.309 40.3229 20.9271C37.941 18.5451 36.75 15.6528 36.75 12.25C36.75 8.77917 37.941 5.87047 40.3229 3.52392C42.7049 1.17736 45.5972 0.00272222 49 0C52.4708 0 55.3809 1.17464 57.7302 3.52392C60.0794 5.87319 61.2527 8.78189 61.25 12.25C61.25 15.6528 60.0767 18.5451 57.7302 20.9271C55.3836 23.309 52.4736 24.5 49 24.5Z" fill="#806181"/>
</svg>
