<?xml version="1.0" encoding="UTF-8"?>
<svg id="Calque_1" xmlns="http://www.w3.org/2000/svg" version="1.1" viewBox="0 0 62.1 62.1">
  <!-- Generator: Adobe Illustrator 29.5.1, SVG Export Plug-In . SVG Version: 2.1.0 Build 141)  -->
  <defs>
    <style>
      .st0 {
        fill: #806181;
      }

      .st1 {
        fill: #fff;
      }

      .st2 {
        fill: none;
        stroke: #806181;
        stroke-width: 6.6px;
      }
    </style>
  </defs>
  <g>
    <circle class="st0" cx="31" cy="31" r="31"/>
    <circle class="st2" cx="31" cy="31" r="27.7"/>
  </g>
  <path class="st1" d="M35.3,26c0-.9-.5-1.7-1.2-2.2-.7-.5-1.7-.8-2.9-.8s-1.5.1-2.1.4c-.6.2-1,.5-1.3.9-.3.4-.4.9-.4,1.4,0,.4,0,.8.3,1.1.2.3.5.6.8.8.4.2.8.4,1.2.6.5.2,1,.3,1.5.4l2.1.5c1,.2,2,.5,2.9.9.9.4,1.6.9,2.3,1.4.6.6,1.1,1.2,1.5,2,.4.8.5,1.7.5,2.7,0,1.5-.4,2.7-1.1,3.8-.7,1.1-1.8,1.9-3.2,2.5-1.4.6-3,.9-5,.9s-3.6-.3-5-.9c-1.4-.6-2.5-1.5-3.3-2.6-.8-1.2-1.2-2.6-1.3-4.3h4.9c0,.8.3,1.5.7,2,.4.5,1,.9,1.6,1.2.7.3,1.5.4,2.3.4s1.6-.1,2.2-.4c.6-.2,1.1-.6,1.5-1,.4-.4.5-1,.5-1.5s-.2-1-.5-1.4c-.3-.4-.8-.7-1.4-.9-.6-.3-1.3-.5-2.2-.7l-2.6-.7c-2-.5-3.6-1.3-4.8-2.3-1.2-1-1.7-2.4-1.7-4.2,0-1.4.4-2.7,1.2-3.8.8-1.1,1.9-1.9,3.2-2.5,1.4-.6,2.9-.9,4.7-.9s3.3.3,4.7.9c1.3.6,2.4,1.5,3.1,2.5.7,1.1,1.1,2.3,1.1,3.8h-4.8Z"/>
</svg>